<?xml version="1.0" encoding="UTF-8"?>
<!-- Generator: visioncortex VTracer 0.6.12 -->
<svg version="1.1" xmlns="http://www.w3.org/2000/svg" width="128" height="128" viewBox="0 0 1254 1254">
<path d="M0 0 C21 17.8 33.2 41 36.6 68.3 C36.7 70.8 36.7 73.3 36.7 75.8 C36.7 76.5 36.7 77.2 36.7 78 C36.8 80.4 36.8 82.8 36.8 85.1 C36.8 86.9 36.8 88.6 36.8 90.3 C36.8 95 36.9 99.7 36.9 104.3 C36.9 109.3 36.9 114.2 37 119.1 C37 127.4 37 135.7 37.1 144 C37.1 155.6 37.2 167.2 37.2 178.8 C37.3 187.9 37.3 197 37.4 206.1 C37.4 207 37.4 208 37.4 209 C37.5 219.7 37.5 230.4 37.5 241.1 C37.6 245.1 37.6 249 37.6 253 C37.6 256.7 37.6 260.3 37.6 264 C37.6 265.9 37.7 267.9 37.7 269.8 C37.7 293.1 34.5 313.3 18.6 331.3 C17.9 332.1 17.2 332.9 16.5 333.7 C3.1 348.1 -14.8 354.6 -34.1 355.4 C-52 355.6 -68.5 348.6 -81.4 336.3 C-96.7 321.2 -102.6 302.3 -102.7 281.1 C-102.7 278.8 -102.7 276.4 -102.7 274.1 C-102.7 272.4 -102.7 270.6 -102.7 268.9 C-102.7 264.3 -102.7 259.7 -102.7 255.1 C-102.7 250.3 -102.7 245.4 -102.7 240.6 C-102.7 232.5 -102.7 224.3 -102.7 216.2 C-102.7 206.8 -102.7 197.5 -102.7 188.1 C-102.7 180 -102.7 171.9 -102.7 163.9 C-102.7 159.1 -102.7 154.2 -102.7 149.4 C-102.7 144.9 -102.7 140.4 -102.7 135.9 C-102.7 134.2 -102.7 132.6 -102.7 130.9 C-102.8 106.7 -102.8 106.7 -94.4 98.3 C-89.7 94 -84.6 93.7 -78.4 94 C-72.6 94.7 -68.4 96.9 -64.6 101.3 C-61 106.4 -60.1 110.6 -60.2 116.8 C-60.2 117.5 -60.2 118.3 -60.2 119 C-60.1 121.5 -60.2 124 -60.2 126.5 C-60.2 128.2 -60.1 130 -60.1 131.8 C-60.1 135.6 -60.1 139.5 -60.1 143.3 C-60.1 149.4 -60.1 155.4 -60.1 161.5 C-60 176.5 -60 191.6 -60 206.6 C-60 218.3 -59.9 230 -59.9 241.7 C-59.9 247.7 -59.9 253.8 -59.9 259.8 C-59.9 263.5 -59.9 267.3 -59.8 271 C-59.8 272.8 -59.8 274.5 -59.8 276.2 C-59.9 288.4 -59.5 298.1 -50.7 307.4 C-44.5 312.7 -38.4 314 -30.4 313.7 C-21.4 312.5 -16.1 307.9 -10.7 301 C-6.3 295.1 -6.1 288.2 -6.2 281.1 C-6.2 280.2 -6.2 279.3 -6.2 278.4 C-6.1 275.4 -6.1 272.4 -6.2 269.4 C-6.1 267.2 -6.1 265 -6.1 262.8 C-6.1 257 -6.1 251.1 -6.1 245.2 C-6.1 240.3 -6.1 235.4 -6.1 230.4 C-6.1 218.8 -6.1 207.2 -6.1 195.6 C-6.1 183.7 -6.1 171.7 -6.1 159.7 C-6.1 149.5 -6.1 139.2 -6.1 128.9 C-6.1 122.8 -6.1 116.6 -6 110.5 C-6 104.7 -6 99 -6.1 93.2 C-6.1 91.1 -6.1 89 -6 86.8 C-6 66.8 -8.7 50.6 -23.2 35.5 C-34.9 24.3 -48.9 18.8 -65.1 19 C-80.2 19.5 -93.3 25.5 -104.2 36 C-116 48.6 -120.8 62.9 -120.7 79.9 C-120.7 80.9 -120.7 81.9 -120.7 83 C-120.7 86.3 -120.7 89.7 -120.7 93.1 C-120.7 95.5 -120.7 98 -120.7 100.4 C-120.8 106.3 -120.8 112.2 -120.8 118.1 C-120.8 122.9 -120.8 127.7 -120.8 132.5 C-120.8 146.1 -120.8 159.8 -120.8 173.4 C-120.8 173.8 -120.8 173.8 -120.8 175.7 C-120.8 176.4 -120.8 177.1 -120.8 177.9 C-120.8 189.8 -120.8 201.7 -120.8 213.6 C-120.9 225.8 -120.9 238.1 -120.9 250.3 C-120.9 257.2 -120.9 264.1 -120.9 270.9 C-120.9 277.4 -120.9 283.9 -120.9 290.3 C-120.9 292.7 -120.9 295.1 -120.9 297.4 C-121 319.5 -118 337.3 -103 354.8 C-90.4 367.3 -73.7 374.1 -55.9 374.7 C-43.1 374.3 -29.7 370.8 -18.9 363.7 C-14.4 361.2 -9.4 361.7 -4.4 362.3 C0.5 364.6 3.3 367.5 5.6 372.3 C6.5 377.7 6.4 382.7 3.6 387.5 C-7.6 402.8 -26.3 410.1 -44.4 413.7 C-72.5 417.5 -99.2 410.4 -121.9 393.3 C-145.8 374.6 -158.5 347.8 -163 318.1 C-163.8 311.3 -163.7 304.4 -163.7 297.6 C-163.7 296 -163.7 294.3 -163.7 292.7 C-163.7 288.2 -163.7 283.8 -163.7 279.3 C-163.7 274.6 -163.7 269.8 -163.7 265.1 C-163.7 257.1 -163.6 249.1 -163.6 241 C-163.6 233 -163.6 224.9 -163.6 216.8 C-163.6 178.5 -163.6 140.2 -163.2 102 C-163.1 99.1 -163.1 96.2 -163.1 93.3 C-162.8 62.3 -158.1 36.4 -137.4 12.3 C-136.9 11.7 -136.4 11 -135.9 10.4 C-121.5 -8 -96.5 -19.5 -73.8 -22.4 C-46.7 -24.7 -21.2 -17.4 0 0 Z " fill="#f56835" transform="translate(689.4,71.7)"/>
<path d="M0 0 C24.5 -0.9 49.1 9.3 67.3 25.2 C73.2 30.7 78.8 36.5 84.5 42.2 C87.1 44.8 89.8 47.5 92.4 50.1 C94.1 51.8 95.8 53.5 97.5 55.3 C98.3 56 99.1 56.8 99.9 57.6 C103.2 61 106.4 64.3 109.5 67.9 C114.3 73.5 119.6 78.6 124.8 83.8 C126.7 85.8 128.7 87.7 130.6 89.6 C134.7 93.7 138.8 97.8 142.9 101.9 C147.7 106.7 152.5 111.4 157.3 116.2 C159.2 118.1 161.1 120 163 121.9 C164.2 123 165.3 124.2 166.5 125.4 C167 125.9 167.6 126.4 168.1 126.9 C171 129.9 173.7 133 176.3 136.2 C177 136.8 177.8 137.4 178.6 138 C180.8 139.9 182.5 141.5 184.3 143.7 C188.6 148.7 193.3 153.3 198.1 157.9 C199.5 159.3 200.9 160.7 202.3 162.1 C205.8 165.5 209.2 168.9 212.7 172.3 C214.6 174.2 216.6 176.1 218.5 178 C220.3 179.8 222.1 181.6 224 183.4 C237.7 197 245.9 214.1 246.6 233.5 C246.1 252.3 238.6 268.2 225.3 281.2 C213.8 291.1 199.3 297 184.3 298.2 C183.6 298.3 183 298.3 182.3 298.4 C166.1 299.1 149.8 293.5 137.8 282.7 C136.2 281.2 134.8 279.7 133.3 278.2 C131.8 276.9 130.3 275.6 128.8 274.3 C124 270.2 124 270.2 122.3 268.2 C122.3 267.6 122.3 266.9 122.3 266.2 C121.7 266 121.2 265.8 120.6 265.6 C117.4 263.7 115 261.2 112.4 258.6 C112.2 258.3 112.2 258.3 110.8 257 C107.4 253.4 104.1 249.8 100.9 246 C98.5 243.4 95.8 241.2 93.1 238.9 C90.5 236.6 88.5 233.9 86.3 231.2 C85 230.1 83.8 229.1 82.6 228 C78.3 224.4 74.6 220.3 70.9 216.1 C68.9 213.9 66.9 212 64.7 210.1 C59.6 205.7 54.9 201.1 50.3 196.4 C48.7 194.9 47.2 193.4 45.7 191.9 C44.7 190.9 43.8 189.9 42.8 189 C41.9 188.1 41 187.2 40.2 186.4 C38.3 184.2 38.3 184.2 38.3 182.2 C37.7 182 37.1 181.8 36.6 181.5 C33.6 179.9 31.6 177.8 29.3 175.4 C28.4 174.6 27.6 173.7 26.7 172.8 C24.3 170.2 24.3 170.2 22.2 167.6 C20.4 165.4 18.6 163.7 16.4 161.9 C9.7 156.1 4.5 150.8 2.5 141.9 C2 134.9 3.9 129.7 8.3 124.2 C13.8 119.1 18.4 117.8 25.8 118 C36.3 119 43.9 128.7 51 135.8 C51.4 136.2 51.4 136.2 53.1 138 C54.6 139.4 56.1 140.9 57.6 142.4 C59.8 144.6 62.1 146.9 64.3 149.1 C65.7 150.6 67.2 152 68.6 153.5 C69.3 154.1 70 154.8 70.6 155.5 C74.5 159.3 78.1 163.3 81.6 167.4 C83.9 170 86.5 172.1 89.2 174.3 C91.2 176.1 92.8 178 94.6 180 C98 183.9 101.6 187.7 105.3 191.4 C105.6 191.7 105.6 191.7 107.3 193.4 C109.4 195.6 111.6 197.8 113.8 200 C114.5 200.7 115.3 201.5 116 202.3 C120 206.2 123.9 210.2 127.9 214.1 C131.9 218.2 136 222.3 140.1 226.4 C143.2 229.5 146.3 232.7 149.5 235.8 C151 237.3 152.5 238.9 154 240.4 C156 242.5 158.1 244.6 160.2 246.7 C160.8 247.3 161.5 247.9 162.1 248.6 C167.6 254 172.7 256.6 180.7 256.7 C187.5 256.5 192.1 255.3 197 250.5 C201.7 245.3 204.1 240.4 204.3 233.2 C203.1 221.4 195.5 214.1 187.4 206.1 C186.4 205.1 185.5 204.2 184.5 203.2 C182 200.7 179.5 198.2 176.9 195.7 C172.9 191.8 168.9 187.8 164.8 183.8 C163.4 182.4 162 181 160.6 179.6 C159.8 178.8 158.9 177.9 158 177 C157.3 176.3 156.5 175.6 155.7 174.8 C153.7 172.7 151.8 170.6 150 168.4 C146.3 164.2 142.4 160.2 138.4 156.2 C138 155.8 138 155.8 136.1 153.9 C133.6 151.5 131.2 149 128.7 146.5 C127 144.8 125.2 143.1 123.5 141.4 C119 136.8 114.4 132.3 109.9 127.8 C105.3 123.2 100.7 118.6 96.1 114 C88.6 106.6 81.2 99.1 73.8 91.7 C71.9 89.9 70.1 88 68.3 86.2 C67.8 85.7 67.3 85.2 66.7 84.7 C64.4 82.3 62 80 59.8 77.5 C59.1 76.8 58.5 76.2 57.9 75.5 C57.2 74.8 56.6 74.1 55.9 73.4 C54 71.3 52 69.2 50 67 C48.6 65.6 47.2 64.1 45.9 62.7 C35.1 51.4 22.1 43.3 6.3 42.2 C-10.3 42.1 -24.4 47.4 -36.4 58.7 C-46.6 69.6 -51.2 83.6 -51 98.4 C-49.8 114.2 -43.8 126.1 -32.7 137.2 C-31.8 138.2 -30.8 139.1 -29.9 140.1 C-27.2 142.8 -24.5 145.5 -21.7 148.2 C-20.1 149.9 -18.4 151.5 -16.7 153.2 C-16.1 153.8 -15.5 154.4 -14.9 155 C-12.2 157.7 -9.5 160.4 -7.1 163.3 C-4.8 166.2 -2.3 168.6 0.3 171.2 C1.4 172.4 2.6 173.6 3.8 174.7 C4.4 175.4 5.1 176 5.7 176.7 C29.7 200.7 29.7 200.7 31.6 202.5 C33.1 204 34.6 205.5 36.1 207 C37.7 208.7 39.3 210.3 41 212 C41.9 212.9 42.8 213.8 43.8 214.8 C44.2 215.2 44.2 215.2 46.5 217.6 C49.3 220.2 49.3 220.2 51.7 222.1 C53.9 223.9 55.6 225.7 57.5 227.9 C61 231.9 64.6 235.7 68.4 239.5 C69.1 240.2 69.7 240.9 70.4 241.6 C72.6 243.8 74.8 246 77 248.2 C77.8 249 78.6 249.7 79.4 250.5 C83.4 254.6 87.4 258.6 91.5 262.7 C95.6 266.8 99.7 271 103.9 275.1 C107.1 278.3 110.3 281.6 113.5 284.8 C115 286.3 116.5 287.8 118.1 289.4 C135.6 307.1 154 322.4 180.3 322.7 C197.2 322.5 212.7 316.4 225 304.6 C227.9 301.5 230.3 298.2 232.6 294.6 C236.4 289 240.5 283.2 247.3 281.2 C252.9 280.6 257.6 280.4 262.8 282.9 C267.7 287.5 270.9 291.6 271.6 298.4 C270.2 314.6 259.5 328.9 247.7 339.6 C244.4 342.4 240.9 344.8 237.3 347.2 C236.3 347.8 235.4 348.5 234.4 349.1 C212.6 362.6 186.3 366.7 161.1 362 C158.8 361.5 156.5 360.9 154.3 360.2 C153 359.9 151.8 359.5 150.6 359.2 C125.8 351.6 108.3 336.8 90.3 318.8 C88.5 317 86.8 315.3 85 313.6 C80.8 309.3 76.6 305.1 72.4 300.9 C68.9 297.5 65.5 294 62.1 290.6 C61.6 290.1 61.1 289.6 60.6 289.1 C59.6 288.1 58.6 287.1 57.6 286.1 C48.3 276.8 38.9 267.5 29.6 258.1 C21.1 249.6 12.6 241.1 4.1 232.6 C-4.7 223.9 -13.5 215.1 -22.3 206.3 C-23.2 205.3 -24.2 204.3 -25.2 203.4 C-25.7 202.9 -26.2 202.4 -26.7 201.9 C-30.1 198.4 -33.6 195 -37 191.6 C-41.6 187 -46.2 182.4 -50.8 177.8 C-52.5 176.1 -54.2 174.4 -55.9 172.7 C-77.6 151.2 -92 127.9 -92.2 96.7 C-91.9 68.4 -82.4 45.4 -62.2 25.6 C-58.4 22 -54.2 19 -49.7 16.2 C-48.7 15.5 -47.7 14.9 -46.6 14.2 C-32 5.3 -16.9 1.3 0 0 Z " fill="#f56835" transform="translate(263.7,191.8)"/>
<path d="M0 0 C23.9 -0.8 47.9 9.2 65.5 25.2 C66.3 25.9 67.1 26.7 68 27.4 C86.1 44.4 95.3 67.9 96.4 92.5 C97.1 119.7 86.4 143.5 67.9 163 C63.8 167.2 59.7 171.3 55.5 175.4 C54 176.9 52.5 178.4 51 180 C47.8 183.1 44.7 186.2 41.5 189.4 C37.5 193.4 33.5 197.4 29.4 201.4 C25.6 205.3 21.7 209.1 17.8 213 C17.1 213.7 16.4 214.4 15.6 215.2 C13.6 217.2 11.5 219.3 9.4 221.4 C8.8 222 8.2 222.6 7.6 223.2 C4.2 226.6 0.6 229.8 -3.1 232.9 C-5.5 235 -7.5 237.4 -9.5 239.9 C-11.3 241.9 -13 243.5 -15 245.2 C-20.2 249.7 -25 254.6 -29.9 259.4 C-30.9 260.4 -31.8 261.4 -32.8 262.4 C-35.9 265.5 -39 268.6 -42 271.7 C-45.6 275.3 -49.2 278.8 -52.8 282.4 C-54.2 283.8 -55.6 285.3 -57 286.7 C-61.5 291.2 -66 295.6 -70.8 299.7 C-73.2 301.7 -75.3 304 -77.5 306.4 C-90.5 320.1 -107 328.3 -126 329.4 C-145.1 329.6 -161.7 324.2 -176.2 311.5 C-188.4 299.6 -195.6 284.7 -196.5 267.6 C-196.6 245 -185.8 228.7 -170.5 213.2 C-169.9 212.5 -169.2 211.8 -168.5 211 C-166.3 208.8 -164 206.5 -161.8 204.3 C-161.4 203.9 -161.4 203.9 -159.7 202.2 C-155.7 198.2 -151.6 194.4 -147.3 190.7 C-144.7 188.4 -142.7 185.9 -140.5 183.2 C-138.9 181.3 -138.9 181.3 -137.5 180.2 C-136.9 180.2 -136.2 180.2 -135.5 180.2 C-135.3 179.6 -135.1 179 -134.9 178.5 C-133.4 175.9 -131.6 174.4 -129.3 172.6 C-124.7 168.8 -120.7 164.3 -116.5 160.1 C-110.6 154.1 -104.7 148.1 -98.8 142.2 C-95.2 138.6 -91.6 134.9 -88.1 131.3 C-84.6 127.8 -81.2 124.3 -77.7 120.8 C-76.4 119.5 -75.1 118.2 -73.7 116.8 C-57.6 100.4 -57.6 100.4 -46.4 99.6 C-39.7 100 -34.8 102.5 -30.2 107.5 C-25.9 112.9 -25.2 118.1 -25.9 124.8 C-27.9 131.9 -32.7 136.8 -37.9 141.8 C-38.2 142.2 -38.2 142.2 -40 144 C-41.5 145.4 -42.9 146.9 -44.4 148.4 C-46.7 150.6 -48.9 152.9 -51.2 155.1 C-52.6 156.6 -54.1 158 -55.5 159.4 C-56.2 160.1 -56.8 160.8 -57.5 161.5 C-58.2 162.1 -58.8 162.7 -59.4 163.3 C-60 163.9 -60.5 164.4 -61.1 165 C-62.5 166.2 -62.5 166.2 -64.5 166.2 C-64.5 166.8 -64.5 167.5 -64.5 168.2 C-65.2 168.2 -65.9 168.2 -66.5 168.2 C-66.5 168.8 -66.5 169.5 -66.5 170.2 C-68 171.6 -68 171.6 -70 173.2 C-74.7 177.3 -79.1 181.6 -83.5 186 C-84.3 186.8 -85.1 187.6 -86 188.5 C-88.5 191.1 -91.1 193.7 -93.7 196.3 C-95.5 198 -97.2 199.8 -99 201.6 C-102.2 204.8 -105.4 208 -108.6 211.2 C-109.3 211.9 -110 212.6 -110.7 213.3 C-111.8 214.5 -113 215.6 -114.1 216.8 C-115.2 218 -116.4 219.1 -117.5 220.2 C-118.2 220.2 -118.9 220.2 -119.5 220.2 C-119.5 220.8 -119.5 221.5 -119.5 222.2 C-120.9 223.5 -120.9 223.5 -122.9 225.1 C-128.3 229.7 -133.3 234.6 -138.3 239.6 C-139.2 240.5 -140.2 241.4 -141.1 242.3 C-147.7 248.9 -153 255.1 -153.9 264.7 C-153.7 270 -152.4 274.7 -149.5 279.2 C-143.8 284.5 -136.7 287.8 -128.8 287.5 C-119.6 286.2 -113.6 282.1 -107.1 275.7 C-105.5 274.1 -103.8 272.5 -102.1 271 C-89.9 259.6 -78.1 247.9 -66.3 236 C-63.7 233.4 -61.1 230.8 -58.5 228.2 C-54.7 224.4 -50.9 220.5 -47.1 216.7 C-46.3 215.9 -45.5 215.1 -44.7 214.3 C-43.4 213 -42.1 211.8 -40.9 210.5 C-38.6 208.1 -36.6 206.4 -33.5 205.2 C-33.5 204.5 -33.5 203.8 -33.5 203.2 C-32.1 201.7 -32.1 201.7 -30.1 200 C-25.6 196.3 -21.5 192.2 -17.4 188.1 C-16.6 187.3 -15.9 186.6 -15.1 185.8 C-12.8 183.4 -10.4 181 -8 178.7 C-4.9 175.5 -1.8 172.4 1.3 169.3 C1.6 168.9 1.6 168.9 3.4 167.1 C7.3 163.2 11.4 159.4 15.6 155.8 C20.2 151.8 24.5 147.5 28.8 143.2 C29.9 142 31.1 140.9 32.3 139.8 C45.1 127.4 53.9 114.5 54.7 96.1 C54.4 81.2 48.7 67 38.5 56.2 C27.1 45.9 14.3 41.5 -1 41.9 C-23.8 43.7 -36.9 58.3 -52.1 73.6 C-53.4 74.9 -54.7 76.3 -56.1 77.6 C-58.9 80.4 -61.8 83.3 -64.6 86.1 C-69.1 90.7 -73.6 95.2 -78.1 99.7 C-87.7 109.3 -97.2 118.8 -106.8 128.4 C-117.1 138.8 -127.5 149.1 -137.8 159.5 C-142.3 164 -146.8 168.4 -151.2 172.9 C-154 175.7 -156.8 178.5 -159.6 181.3 C-160.9 182.6 -162.2 183.9 -163.4 185.2 C-165.2 186.9 -167 188.7 -168.7 190.5 C-169.2 191 -169.7 191.5 -170.3 192 C-173.5 195.3 -177 198.2 -180.5 201.2 C-181.7 202.4 -182.8 203.6 -183.8 204.9 C-188.7 210.6 -194 216.4 -200 221.1 C-208 227.7 -214.1 237.4 -217.5 247.2 C-217.7 247.6 -217.7 247.6 -218.5 249.8 C-223.8 267.3 -220.7 285 -212.5 300.9 C-206 311.9 -206 311.9 -201.5 314.2 C-201.5 314.8 -201.5 315.5 -201.5 316.2 C-201 316.4 -200.4 316.7 -199.9 317 C-197.3 318.3 -194.9 319.8 -192.5 321.4 C-188.6 323.9 -184.8 326.1 -180.7 328.2 C-175 331.3 -172 334.1 -169.2 340 C-168 345.7 -168.4 350.9 -171.5 356 C-175.3 360.6 -180.1 362.6 -185.9 363.5 C-201.9 364.4 -218.4 354.5 -230.1 344.4 C-230.9 343.6 -231.7 342.9 -232.5 342.2 C-232.9 341.9 -232.9 341.9 -234.7 340.3 C-253.3 322.9 -262.6 297.2 -263.5 272.2 C-264.1 242.4 -252.6 214.9 -232.1 193.5 C-227.9 189.2 -223.7 185 -219.4 180.8 C-217.8 179.1 -216.2 177.5 -214.5 175.9 C-210.2 171.5 -205.8 167.1 -201.4 162.7 C-196.8 158.1 -192.2 153.5 -187.6 148.9 C-179.4 140.7 -171.2 132.6 -163 124.4 C-155.6 116.9 -148.1 109.5 -140.7 102.1 C-132.1 93.4 -123.4 84.8 -114.8 76.1 C-110.2 71.5 -105.6 67 -101 62.4 C-96.8 58.1 -92.5 53.8 -88.2 49.5 C-86.6 47.9 -85 46.4 -83.4 44.8 C-81.3 42.6 -79.1 40.5 -77 38.4 C-76.7 38 -76.7 38 -75.1 36.4 C-70.8 32.2 -70.8 32.2 -68.5 32.2 C-68.5 31.5 -68.5 30.8 -68.5 30.2 C-66.1 27.6 -63.3 25.4 -60.5 23.2 C-60.2 22.9 -60.2 22.9 -58.4 21.4 C-41.3 7.7 -21.6 1.4 0 0 Z " fill="#f56835" transform="translate(985.5,191.8)"/>
<path d="M0 0 C2 -0 4 -0 6 -0 C11.4 -0 16.7 -0 22.1 -0 C26.6 -0 31.1 -0 35.6 -0 C46.3 -0 56.9 -0 67.6 -0 C78.5 -0 89.5 -0 100.4 -0.1 C109.8 -0.1 119.3 -0.1 128.7 -0.1 C134.3 -0.1 139.9 -0.1 145.5 -0.1 C150.8 -0.1 156.1 -0.1 161.4 -0.1 C163.3 -0.1 165.2 -0.1 167.2 -0.1 C181.4 -0.2 196 0.3 209.1 6.5 C209.4 6.7 209.4 6.7 211.1 7.4 C228 15.5 240.5 29.1 247 46.7 C252 63.8 250.2 81 242 96.7 C232.7 113.3 218.3 123.7 200.1 129 C190.2 131.7 180.1 131.4 169.9 131.5 C168.3 131.5 166.7 131.5 165.1 131.5 C159.9 131.5 154.7 131.5 149.5 131.5 C147.8 131.5 146 131.5 144.2 131.5 C135.7 131.5 127.3 131.6 118.9 131.6 C109.2 131.6 99.4 131.6 89.7 131.6 C82.2 131.7 74.7 131.7 67.2 131.7 C62.7 131.7 58.2 131.7 53.7 131.7 C49.5 131.8 45.3 131.8 41 131.7 C39.5 131.7 38 131.8 36.4 131.8 C17.9 131.9 17.9 131.9 10.8 125.5 C6 120.3 4.3 115.6 4.5 108.5 C5.2 102.4 8 98.1 12.7 94.3 C20.3 89.2 28 89.7 36.8 89.8 C38.4 89.8 40.1 89.8 41.7 89.8 C45.2 89.8 48.7 89.8 52.2 89.8 C57.7 89.8 63.3 89.8 68.8 89.8 C81.6 89.8 94.3 89.8 107.1 89.8 C118.8 89.8 130.5 89.8 142.2 89.8 C147.7 89.7 153.2 89.7 158.7 89.8 C162.1 89.8 165.5 89.8 169 89.8 C170.6 89.8 172.1 89.8 173.7 89.8 C183.4 89.8 192.1 89.5 200.1 83.4 C205.1 77.4 208.2 71.6 207.6 63.6 C207 59.7 205.7 56.7 203.7 53.3 C203.6 52.9 203.6 52.9 202.8 51 C201.4 48.8 200.1 48.4 197.7 47.3 C197.4 47.1 197.4 47.1 195.8 46.2 C195.2 45.9 194.6 45.6 193.9 45.2 C193.6 45 193.6 45 192 44.2 C186.4 41.9 180.2 42.1 174.2 42.1 C173.3 42.1 172.5 42.1 171.6 42.1 C168.9 42.1 166.1 42.1 163.3 42.1 C161.3 42.1 159.3 42.1 157.3 42.1 C150.7 42.1 144.1 42 137.5 42 C135.3 42 133 42 130.7 42 C120.1 42 109.4 42 98.7 42 C86.5 42 74.2 41.9 61.9 41.9 C52.4 41.9 42.9 41.9 33.4 41.9 C27.7 41.9 22 41.8 16.4 41.8 C11 41.8 5.7 41.8 0.3 41.8 C-1.6 41.8 -3.6 41.8 -5.5 41.8 C-26.2 41.6 -44.5 45 -60.1 59.9 C-71.9 72.6 -75.8 86.3 -75.5 103.2 C-75.1 116 -68.8 127.7 -59.5 136.4 C-47.3 146.6 -33.2 151.5 -17.5 151.4 C-17 151.4 -17 151.4 -14.7 151.4 C-11.7 151.4 -8.6 151.4 -5.5 151.4 C-3.2 151.4 -1 151.3 1.3 151.3 C7.2 151.3 13.1 151.3 19 151.3 C24.5 151.3 30.1 151.3 35.6 151.2 C56.2 151.2 76.9 151.1 97.5 151 C107.5 151 117.5 151 127.5 150.9 C136.3 150.9 145.2 150.9 154.1 150.8 C158.7 150.8 163.4 150.8 168 150.8 C172.3 150.8 176.7 150.8 181 150.7 C182.6 150.7 184.2 150.7 185.7 150.7 C210.1 150.7 232.2 145.9 250.6 128.9 C261.9 116.7 266.3 102.8 266 86.5 C265.7 78.8 262.8 71.9 260 64.9 C258.1 59.4 258 55.4 260.4 50.1 C262.8 45.7 265.7 43.4 270 41 C277.1 39.1 282.1 40.2 288.4 43.7 C299.3 51.2 303.9 67.1 306.7 79.3 C310.6 102 305.2 125.2 292.1 144.1 C288.6 148.8 284.8 153.1 280.7 157.3 C280.5 157.6 280.5 157.6 279.1 159.1 C259.8 180.3 225.2 188.8 197.7 190.3 C190.4 190.5 183 190.4 175.7 190.4 C173.5 190.4 171.2 190.4 169 190.4 C163 190.5 157 190.5 151 190.5 C147.2 190.5 143.4 190.5 139.7 190.5 C129.2 190.5 118.8 190.5 108.3 190.5 C107.7 190.5 107 190.5 106.3 190.5 C105.7 190.5 105 190.5 104.3 190.5 C102.9 190.5 101.6 190.5 100.2 190.5 C99.9 190.5 99.9 190.5 98.2 190.5 C87.3 190.5 76.5 190.5 65.6 190.6 C54.4 190.6 43.2 190.6 32 190.6 C25.7 190.6 19.4 190.6 13.2 190.6 C7.3 190.6 1.4 190.6 -4.5 190.6 C-6.7 190.6 -8.8 190.6 -11 190.6 C-22.8 190.7 -33.8 190.3 -45.3 187.3 C-46 187.1 -46.8 186.9 -47.6 186.7 C-70.1 180.4 -92.4 164.7 -104.3 144.3 C-116 123 -120.4 99.1 -114.2 75.2 C-106.9 50.3 -91.1 28 -68.1 15.3 C-46 3.4 -24.9 -0 0 0 Z " fill="#f56835" transform="translate(167.3,541.7)"/>
<path d="M0 0 C0.9 -0 1.8 -0 2.7 -0 C5.6 -0 8.6 -0 11.5 -0 C13.6 -0 15.7 -0 17.9 -0 C23.6 -0 29.3 -0.1 35.1 -0.1 C38.7 -0.1 42.3 -0.1 45.9 -0.1 C57.1 -0.1 68.4 -0.1 79.7 -0.1 C92.6 -0.1 105.6 -0.1 118.6 -0.1 C128.6 -0.2 138.6 -0.2 148.7 -0.2 C154.7 -0.2 160.7 -0.2 166.7 -0.2 C172.3 -0.2 177.9 -0.2 183.6 -0.2 C185.6 -0.2 187.7 -0.2 189.8 -0.2 C205.8 -0.3 222.4 0.3 237.6 6.3 C238.4 6.6 239.1 6.9 239.9 7.2 C251.9 12 262.2 18.5 271.8 27.1 C272.7 28 273.6 28.8 274.6 29.7 C281.7 36.4 286.8 43.7 291.8 52.1 C292 52.6 292 52.6 293.3 54.7 C304.2 74.5 306.3 100.7 300 122.4 C291.5 148 275.6 166.2 251.8 178.5 C237.3 185.6 222.8 188.4 206.8 188.5 C205.5 188.5 204.3 188.5 203 188.5 C199.5 188.5 196.1 188.5 192.6 188.5 C189 188.6 185.3 188.6 181.7 188.6 C174.6 188.7 167.6 188.7 160.5 188.7 C154.9 188.8 149.2 188.8 143.6 188.8 C142.8 188.8 142 188.8 141.2 188.8 C139.5 188.8 137.9 188.9 136.3 188.9 C122.1 188.9 107.9 189 93.6 189.1 C83.1 189.1 72.5 189.2 61.9 189.2 C54.8 189.3 47.6 189.3 40.4 189.4 C36.6 189.4 32.8 189.4 29 189.4 C1.5 189.6 -22.8 187.6 -43.9 167.7 C-56 154.3 -61.9 137.8 -61.2 119.7 C-59.3 102.3 -50.5 86.2 -37.4 74.6 C-24.1 64.3 -9.1 59.1 7.7 59 C8.4 59 9.1 59 9.7 59 C12 59 14.2 59 16.4 59 C18 59 19.5 59 21.1 58.9 C26.3 58.9 31.6 58.9 36.8 58.9 C38.6 58.9 40.4 58.9 42.1 58.9 C50.6 58.9 59 58.9 67.5 58.8 C77.2 58.8 86.9 58.8 96.7 58.8 C104.2 58.7 111.7 58.7 119.3 58.7 C123.8 58.7 128.2 58.7 132.7 58.7 C137 58.7 141.2 58.7 145.4 58.7 C147 58.7 148.5 58.7 150.1 58.6 C168.6 58.5 168.6 58.5 175.7 64.9 C181 70.5 182.2 75.9 182 83.5 C181.4 90.1 177.8 93.4 173.1 97.6 C168.1 100.9 162.7 101.4 156.8 101.4 C156.1 101.4 155.5 101.4 154.8 101.4 C152.6 101.3 150.4 101.3 148.2 101.3 C146.6 101.3 145 101.3 143.4 101.3 C140 101.3 136.6 101.3 133.1 101.2 C127.7 101.2 122.3 101.2 116.9 101.2 C101.5 101.1 86.2 101 70.8 100.9 C62.3 100.9 53.8 100.9 45.3 100.8 C39.9 100.8 34.5 100.8 29.2 100.8 C25.8 100.7 22.5 100.7 19.1 100.7 C17.6 100.7 16 100.7 14.5 100.7 C-4.1 100.5 -4.1 100.5 -11.1 106.8 C-12.7 108.5 -14 110.2 -15.2 112.1 C-15.8 113 -16.5 113.9 -17.1 114.8 C-19.3 121.4 -19.2 128.5 -16.7 135 C-13.3 141.7 -7.4 144.9 -0.5 147.5 C3.3 148.6 6.9 148.6 10.8 148.5 C11.7 148.5 12.5 148.5 13.4 148.5 C16.4 148.6 19.3 148.6 22.2 148.5 C24.3 148.6 26.4 148.6 28.5 148.6 C34.2 148.6 39.8 148.6 45.5 148.6 C50.3 148.6 55 148.6 59.8 148.6 C71 148.6 82.2 148.6 93.5 148.6 C105 148.6 116.6 148.6 128.1 148.6 C138.1 148.6 148 148.6 157.9 148.6 C163.9 148.6 169.8 148.6 175.7 148.7 C181.3 148.7 186.9 148.7 192.5 148.6 C194.5 148.6 196.5 148.6 198.6 148.7 C217.2 148.7 233.5 146.2 247.6 132.8 C258 121.7 262.4 109.2 262.2 94.2 C261.7 78.6 254 65.7 242.8 55.1 C231.4 46 217.1 42 202.6 42 C201.7 42 200.8 42 199.8 42 C196.7 42 193.6 42 190.5 42 C188.3 42 186 42 183.8 42 C177.8 42 171.7 41.9 165.7 41.9 C161.9 41.9 158.1 41.9 154.3 41.9 C143.9 41.9 133.4 41.9 122.9 41.9 C122.2 41.9 121.6 41.9 120.9 41.9 C120.5 41.9 120.5 41.9 118.8 41.9 C117.5 41.9 116.1 41.9 114.7 41.9 C114.4 41.9 114.4 41.9 112.7 41.9 C101.8 41.9 90.9 41.9 79.9 41.9 C68.7 41.8 57.5 41.8 46.2 41.8 C39.9 41.8 33.6 41.8 27.3 41.8 C21.4 41.8 15.5 41.8 9.5 41.8 C7.4 41.8 5.2 41.8 3 41.8 C-17.5 41.7 -34.8 44.5 -52.2 56.1 C-53 56.6 -53.8 57.1 -54.5 57.7 C-66.3 66 -75.4 80.4 -78 94.6 C-79.2 107.1 -77.9 118 -73 129.5 C-71 134.3 -70.2 138.1 -71.9 143.2 C-73.7 147.4 -75.8 150.4 -80 152.5 C-85.8 154.1 -91.8 153.8 -97.5 152.2 C-110 142.8 -116.2 128 -118.8 112.9 C-121.8 87.7 -114.8 63.9 -99.2 43.9 C-77.5 17 -45.5 4.1 -11.7 0.4 C-7.8 0 -3.9 -0 0 0 Z " fill="#f56835" transform="translate(900.2,541.9)"/>
<path d="M0 0 C3.5 2.5 6.8 5.1 10 8 C10.8 8.7 11.5 9.3 12.3 10 C27.7 24.4 38 46.9 39.2 67.9 C39.6 102.3 31.8 128.8 8 154 C7.3 154.8 6.5 155.6 5.7 156.4 C4 158 4 158 2 158 C1.9 158.3 1.9 158.3 1.3 159.8 C-0.2 162.4 -1.9 163.9 -4.2 165.8 C-8.7 169.7 -12.9 173.8 -17 178 C-17.6 178.6 -18.2 179.2 -18.9 179.9 C-21.4 182.4 -23.9 185 -26.4 187.5 C-28.3 189.4 -30.2 191.3 -32 193.2 C-32.3 193.5 -32.3 193.5 -33.8 195 C-35.1 196.3 -36.6 197.7 -38 199 C-38.7 199 -39.3 199 -40 199 C-40.2 199.6 -40.5 200.1 -40.7 200.7 C-42.3 203.6 -44.3 205.5 -46.6 207.8 C-47 208.2 -47 208.2 -49.1 210.3 C-51.2 212.2 -53.2 214.1 -55.4 215.9 C-59.5 219.4 -63.3 223.2 -67.1 227 C-67.7 227.7 -68.3 228.3 -69 229 C-71.6 231.6 -74.3 234.3 -76.9 237 C-78.8 239 -80.8 240.9 -82.7 242.9 C-83 243.2 -83 243.2 -84.6 244.8 C-86 246.2 -87.5 247.6 -89 249 C-89.7 249 -90.3 249 -91 249 C-91.3 249.6 -91.5 250.2 -91.8 250.8 C-93 253.1 -94.3 254.5 -96.1 256.3 C-96.7 256.8 -97.2 257.4 -97.8 257.9 C-99.7 259.7 -101.7 261.4 -103.7 263.2 C-107.9 266.8 -111.8 270.7 -115.7 274.7 C-116.4 275.4 -117.1 276.1 -117.8 276.8 C-120.1 279 -122.3 281.3 -124.5 283.5 C-127.4 286.4 -130.4 289.4 -133.3 292.3 C-133.9 293 -134.6 293.7 -135.3 294.4 C-139.1 298.2 -143.1 301.9 -147.2 305.4 C-149.6 307.5 -151.7 309.8 -153.9 312.1 C-171.5 330.5 -195.7 342.5 -221.4 343.2 C-247.9 343.5 -272.9 337.3 -292.5 318.5 C-294 317 -295.5 315.5 -297 314 C-297.4 313.6 -297.4 313.6 -299.3 311.7 C-315.2 295.1 -321.8 272 -321.2 249.5 C-320 219.5 -303 198.6 -282.7 178.5 C-280.5 176.3 -278.3 174.1 -276 171.9 C-274.6 170.4 -273.2 169 -271.7 167.6 C-271.4 167.2 -271.4 167.2 -269.7 165.6 C-266.7 162.6 -263.6 159.6 -260.4 156.9 C-254.7 152 -249.5 146.6 -244.3 141.4 C-242.3 139.4 -240.4 137.4 -238.4 135.5 C-234.3 131.3 -230.1 127.2 -226 123 C-221.2 118.2 -216.4 113.3 -211.6 108.5 C-209.7 106.6 -207.8 104.7 -205.8 102.8 C-200.7 97.6 -195.5 92.5 -190 87.7 C-186.1 84.3 -182.5 80.6 -178.9 76.9 C-177.4 75.4 -175.9 74 -174.5 72.5 C-170.3 68.3 -166.1 64.1 -161.9 59.8 C-159.4 57.2 -156.8 54.7 -154.2 52.1 C-153.2 51.1 -152.3 50.1 -151.3 49.1 C-149.9 47.7 -148.6 46.4 -147.2 45 C-146.5 44.2 -145.7 43.5 -144.9 42.7 C-143 41 -143 41 -141 41 C-140.7 40 -140.3 39 -140 38 C-126.7 24.9 -109.1 16.3 -90.3 15.8 C-72.6 16.1 -56.3 22.9 -43.9 35.6 C-31.2 49.2 -26.4 65.1 -26.7 83.3 C-27.5 102.1 -37.2 116.2 -50 129 C-50.7 129.8 -51.5 130.5 -52.2 131.3 C-54 133 -54 133 -56 133 C-56 133.7 -56 134.3 -56 135 C-57.4 136.4 -57.4 136.4 -59.4 138.1 C-64.1 142.1 -68.5 146.4 -72.8 150.8 C-73.6 151.6 -74.4 152.4 -75.3 153.2 C-77.9 155.8 -80.4 158.4 -83 161 C-86.4 164.4 -89.8 167.8 -93.2 171.2 C-94 172 -94.7 172.8 -95.5 173.6 C-99.5 177.6 -103.7 181.5 -108 185.2 C-111.7 188.5 -115.1 192 -118.6 195.6 C-120.2 197.2 -121.8 198.8 -123.4 200.4 C-125.9 202.9 -128.4 205.5 -130.9 208 C-133.3 210.5 -135.8 212.9 -138.2 215.4 C-138.6 215.8 -138.6 215.8 -140.5 217.7 C-140.8 218 -140.8 218 -142.6 219.8 C-143.2 220.4 -143.8 221 -144.4 221.7 C-146 223 -146 223 -148 223 C-148 223.7 -148 224.3 -148 225 C-149.5 226.4 -149.5 226.4 -151.5 228.1 C-154.5 230.7 -157.3 233.3 -160 236.2 C-164.9 241.2 -169.6 243.1 -176.6 243.4 C-183.7 243.1 -188.9 239.9 -194 235 C-197.6 230.2 -197.4 225.2 -197.6 219.4 C-196 210.1 -188.3 203.9 -181.8 197.5 C-180.2 195.9 -178.6 194.4 -177 192.8 C-172.1 187.9 -167.1 183.2 -161.9 178.7 C-158.3 175.5 -154.9 172 -151.5 168.5 C-147.5 164.4 -143.5 160.3 -139.1 156.6 C-134.1 152.3 -129.6 147.7 -125 143 C-119.8 137.7 -114.6 132.6 -109 127.7 C-105.3 124.5 -101.9 121 -98.5 117.5 C-93.8 112.7 -89 108 -83.8 103.6 C-81.4 101.4 -79 99.2 -76.7 96.9 C-75.9 96.1 -75 95.3 -74.2 94.5 C-69.1 88.6 -67.8 82.6 -68 75 C-69.2 68.6 -72.4 64.5 -77.7 60.8 C-84.1 57.1 -90.4 57 -97.5 58.5 C-105.6 61.1 -111.2 67.1 -117 73 C-117.5 73.5 -118 74 -118.6 74.6 C-121.1 77.1 -123.6 79.6 -126 82.1 C-128.2 84.3 -130.5 86.3 -132.8 88.3 C-137.3 92.2 -141.4 96.3 -145.5 100.5 C-149.5 104.6 -153.5 108.6 -157.9 112.4 C-163 116.8 -167.7 121.7 -172.5 126.5 C-182.5 136.7 -182.5 136.7 -186.9 140.4 C-192.6 145.3 -197.8 150.7 -203 156 C-205.1 158.1 -207.2 160.2 -209.2 162.3 C-210.2 163.2 -211.1 164.2 -212 165.1 C-214.2 167.3 -216.5 169.3 -218.8 171.3 C-223.2 175.1 -227.3 179.2 -231.4 183.3 C-232.1 184.1 -232.9 184.9 -233.7 185.7 C-236.1 188.1 -238.6 190.5 -241 193 C-244.2 196.2 -247.4 199.5 -250.6 202.7 C-251 203.1 -251 203.1 -252.8 204.9 C-256.8 209 -261 212.8 -265.3 216.5 C-274.8 224.9 -279.3 237.6 -280.2 249.9 C-280.6 263.8 -276.2 276.9 -267.4 287.8 C-256.9 298.8 -243.5 303.7 -228.6 304.3 C-209.1 304.1 -195.1 295.2 -181.8 281.8 C-181.2 281.2 -180.7 280.7 -180.1 280.1 C-179.1 279 -178 277.9 -176.9 276.8 C-175.7 275.5 -174.3 274.2 -173 273 C-172.3 273 -171.7 273 -171 273 C-171 272.3 -171 271.7 -171 271 C-169.6 269.6 -169.6 269.6 -167.6 267.9 C-162.9 263.9 -158.5 259.6 -154.2 255.2 C-153.4 254.4 -152.6 253.6 -151.7 252.8 C-149.1 250.2 -146.6 247.6 -144 245 C-140.6 241.6 -137.2 238.2 -133.8 234.8 C-133 234 -132.3 233.2 -131.5 232.4 C-127.5 228.4 -123.3 224.5 -119 220.8 C-115.2 217.4 -111.7 213.8 -108.2 210.2 C-107.4 209.4 -106.6 208.6 -105.7 207.8 C-103.1 205.2 -100.6 202.6 -98 200 C-94.6 196.6 -91.2 193.2 -87.8 189.8 C-87 189 -86.3 188.2 -85.5 187.4 C-81.4 183.3 -77.3 179.5 -72.9 175.7 C-69.7 172.9 -66.7 169.8 -63.7 166.8 C-63.1 166.1 -62.4 165.5 -61.7 164.8 C-59.6 162.7 -57.6 160.6 -55.5 158.5 C-52.8 155.7 -50 153 -47.3 150.2 C-46.7 149.6 -46.1 149 -45.4 148.3 C-41.7 144.6 -37.8 141 -33.8 137.5 C-16.7 122.7 -3.5 106.2 -1.8 82.9 C-1.3 65.9 -6.4 50.5 -18 38 C-18 37.3 -18 36.7 -18 36 C-18.6 35.7 -19.2 35.5 -19.8 35.2 C-22.1 34 -23.9 32.6 -25.9 30.9 C-30.3 27.3 -35.1 24.6 -40.1 21.9 C-45.1 19.2 -48.2 16.4 -50 11 C-50.5 5.7 -50.7 1.4 -48.3 -3.4 C-34.9 -18.3 -14.5 -9.1 0 0 Z " fill="#f56835" transform="translate(494,733)"/>
<path d="M0 0 C1.2 0.3 2.3 0.6 3.5 0.9 C19.4 5.6 34.8 13.7 47 25 C48.1 25.9 49.2 26.8 50.4 27.8 C54.1 30.9 57.4 34.2 60.4 38 C62.6 40.6 64.8 42.5 67.4 44.6 C69.1 46.1 70.5 47.7 72 49.4 C77 55.2 82.4 60.6 87.9 66 C89.1 67.2 90.3 68.4 91.5 69.6 C94 72.1 96.6 74.6 99.1 77.2 C103.2 81.2 107.2 85.3 111.2 89.3 C119.8 97.9 128.4 106.4 137 115 C146.3 124.2 155.5 133.5 164.8 142.8 C168.8 146.8 172.8 150.8 176.8 154.8 C179.4 157.3 181.9 159.8 184.4 162.3 C185.5 163.4 186.7 164.6 187.8 165.7 C193.3 171.1 198.6 176.5 203.6 182.4 C205.9 185 208.3 187.3 210.8 189.7 C211.9 190.8 212.9 191.8 214 192.8 C214.5 193.4 215.1 193.9 215.6 194.4 C225 203.6 233.8 212.4 240 224 C240.6 225.1 241.2 226.1 241.8 227.2 C252.5 248.5 254 273.9 246.9 296.5 C237.8 321.2 220.6 339 197 350.2 C191.5 352.7 185.9 354.6 180 356 C179.3 356.2 178.6 356.4 177.8 356.5 C161 360.3 142.4 359.2 126 354 C125.7 353.9 125.7 353.9 124 353.4 C109.6 348.6 98 340.4 87 330 C85.4 328.6 83.8 327.2 82.2 325.8 C79 322.9 76 320 73 317 C72 316 70.9 315 69.9 314 C68.8 312.9 67.8 311.9 66.7 310.8 C66.1 310.3 65.6 309.7 65 309.2 C63.6 307.8 62.3 306.4 61 305 C61 304.3 61 303.7 61 303 C60.4 302.7 59.8 302.5 59.2 302.2 C56.8 300.9 55.5 299.5 53.8 297.4 C49.9 292.8 45.7 288.6 41.4 284.3 C40.6 283.6 39.9 282.8 39.1 282.1 C37.8 280.7 36.4 279.4 35 278 C32.7 275.7 30.3 273.3 28 271 C26.5 269.5 24.9 268 23.4 266.4 C19.1 262.1 14.7 257.7 10.4 253.4 C7.7 250.8 5.1 248.2 2.5 245.6 C-0.1 243 -2.6 240.5 -5.2 237.9 C-6.6 236.5 -8 235.1 -9.5 233.6 C-13.3 229.8 -17 226.1 -20.5 222 C-24.8 217 -29.5 212.4 -34.2 207.8 C-35.2 206.9 -36.1 205.9 -37.1 204.9 C-41.2 200.9 -45.3 196.8 -49.4 192.8 C-88.7 154.1 -88.7 154.1 -89.1 125 C-88.8 107 -81.3 90.9 -69 78 C-54.4 65.3 -39.2 60 -20 60 C9 62.1 27.7 85.6 46.8 104.6 C49.5 107.3 52.2 110 54.9 112.7 C59.4 117.2 63.9 121.7 68.4 126.3 C73.6 131.5 78.8 136.7 84 141.9 C88.5 146.3 93 150.8 97.5 155.3 C100.1 158 102.8 160.7 105.5 163.3 C108 165.8 110.5 168.4 113 170.9 C114.3 172.2 115.7 173.6 117 174.9 C121.4 179.3 125.6 183.7 129.6 188.4 C131.4 190.4 133.3 192.4 135.3 194.3 C136 195 136.8 195.7 137.5 196.5 C139 197.9 140.5 199.4 142 200.8 C146.7 205.4 150.4 209.2 151.4 216 C151.4 222.6 151.1 226.7 147 232 C142 237 138.5 239.1 131.3 239.4 C130.3 239.4 129.3 239.5 128.3 239.5 C119.1 238.1 112.6 230.1 106.4 223.7 C105.4 222.7 104.4 221.7 103.4 220.7 C101.3 218.7 99.2 216.6 97.2 214.5 C94.5 211.8 91.9 209.2 89.2 206.5 C87.1 204.5 85.1 202.4 83 200.3 C82.1 199.4 81.1 198.4 80.1 197.4 C78.7 196 77.4 194.7 76 193.3 C75.2 192.5 74.5 191.7 73.7 190.9 C72 189 72 189 72 187 C71.7 186.9 71.7 186.9 70.2 186.2 C67.8 184.9 66.6 183.6 64.8 181.4 C60.8 176.7 56.4 172.3 52 167.9 C51.1 167 50.3 166.2 49.4 165.3 C46.7 162.6 44.1 160 41.4 157.3 C39.6 155.5 37.8 153.7 36 151.9 C31.9 147.9 27.9 143.9 23.9 139.9 C22.3 138.3 20.7 136.7 19.1 135.1 C17.5 133.5 15.8 131.8 14.1 130.2 C5.1 121.2 5.1 121.2 1.4 116.8 C-4.9 109.5 -11.9 101.8 -21.8 100.7 C-28.4 100.4 -33.7 100.9 -39 105 C-44.8 110.3 -48.1 116.3 -48.6 124.2 C-48.1 135.8 -40.7 144.1 -32.6 151.8 C-30.9 153.3 -29.3 154.9 -27.6 156.5 C-26.9 157.2 -26.2 157.8 -25.4 158.5 C-23.5 160.4 -21.8 162.4 -20.1 164.4 C-15 170.2 -9.6 175.6 -4.1 181 C-2.1 183 -0.1 184.9 1.9 186.9 C6.1 191.2 10.4 195.4 14.6 199.6 C19.6 204.5 24.5 209.4 29.4 214.4 C31.4 216.3 33.3 218.3 35.3 220.2 C36.5 221.4 37.7 222.6 38.9 223.8 C39.5 224.4 40 224.9 40.6 225.5 C43.9 228.8 47 232.3 50 236 C51.9 237.7 53.8 239.3 55.7 240.9 C57.6 242.6 59.2 244.4 60.8 246.3 C66.2 252.5 72.1 258.2 77.8 264 C78.4 264.7 79.1 265.3 79.7 265.9 C82.9 269.1 86.2 272.4 89.4 275.6 C92.7 279 96 282.3 99.3 285.6 C101.9 288.2 104.5 290.8 107 293.4 C108.3 294.6 109.5 295.8 110.7 297.1 C119 305.4 126.8 313 138.1 316.8 C139.3 317.2 140.4 317.6 141.6 318 C156.3 322.2 171.7 320 185.2 312.8 C197.9 304.7 205.7 293.7 209.8 279.2 C212.5 266.8 210.7 252.9 204.2 241.9 C198.8 234.1 192.9 227.3 186.1 220.6 C185 219.6 184 218.5 182.9 217.5 C180 214.6 177.2 211.8 174.3 208.9 C171.3 205.9 168.3 202.9 165.3 199.9 C159.6 194.3 153.9 188.6 148.2 183 C139.8 174.7 131.5 166.4 123.2 158.1 C122.5 157.5 121.9 156.8 121.3 156.2 C120.1 155 118.8 153.8 117.6 152.5 C114 149 110.5 145.4 106.9 141.9 C104.7 139.7 102.4 137.5 100.2 135.3 C99.2 134.2 98.2 133.2 97.1 132.2 C92 127.2 87 122.1 82.4 116.6 C81 115 81 115 78.5 113 C76.3 111.2 74.7 109.6 72.9 107.4 C69 102.8 64.6 98.9 60.1 94.9 C57.9 92.9 55.9 90.8 54 88.6 C48.9 82.6 43.3 77.1 37.8 71.5 C36.5 70.2 35.3 68.9 34 67.6 C24.1 57.5 14 48 0.8 42.6 C-0.3 42.1 -1.4 41.7 -2.5 41.2 C-19.5 35.4 -38.1 36.4 -54.5 43.5 C-65.8 49.2 -74.6 57.7 -82.3 67.7 C-85.2 71.4 -87.5 73.5 -92 75 C-97.6 75.6 -102.3 75.7 -107.5 73.5 C-111.8 69.2 -113.7 65.2 -114.5 59.2 C-113.6 44.5 -102.7 30.2 -92.4 20.6 C-66.7 -1.2 -32.8 -9.4 0 0 Z " fill="#f56835" transform="translate(828,719)"/>
<path d="M0 0 C22.9 19.2 34.2 45.8 37.9 75 C38.3 80.3 38.4 85.7 38.4 91.1 C38.4 92.7 38.4 94.3 38.4 95.8 C38.5 100.2 38.5 104.5 38.5 108.9 C38.6 111.7 38.6 114.5 38.6 117.3 C38.7 130.5 38.8 143.7 38.8 156.9 C38.9 162.6 38.9 168.3 38.9 174 C39 192.5 39.1 211 39.1 229.5 C39.1 231.3 39.1 233 39.2 234.7 C39.2 235.5 39.2 236.4 39.2 237.3 C39.2 243.2 39.2 249.2 39.2 255.2 C39.3 262.6 39.3 270 39.3 277.4 C39.3 281.2 39.3 285 39.3 288.8 C39.5 316.9 36.4 340.3 18.9 363 C18.3 363.7 17.7 364.5 17.1 365.2 C1.1 384.7 -24.5 395.4 -49.1 398 C-78.3 399.7 -104 389.6 -125.8 370.6 C-143.6 353.9 -153.5 330.4 -154.3 306 C-154.3 304.6 -154.3 303.3 -154.3 301.9 C-154.3 301.1 -154.3 300.3 -154.3 299.5 C-154.3 296.9 -154.3 294.3 -154.3 291.7 C-154.3 289.9 -154.3 288 -154.3 286.1 C-154.3 281 -154.3 275.9 -154.3 270.8 C-154.3 267.7 -154.3 264.5 -154.3 261.3 C-154.2 245.2 -154.2 229.1 -154.1 213 C-154.1 211.8 -154.1 210.5 -154.1 209.3 C-154.1 193.4 -154 177.4 -153.9 161.5 C-153.8 156.8 -153.8 152.1 -153.8 147.4 C-153.8 141.8 -153.7 136.2 -153.7 130.7 C-153.7 128.6 -153.6 126.6 -153.6 124.5 C-153.5 99.3 -149.2 79.4 -131.6 60.4 C-118.1 47.2 -101 40 -82.2 39.9 C-65.7 40.4 -50.9 47.3 -39.1 59 C-25.8 74 -22.8 89.6 -22.8 109 C-22.8 110.7 -22.8 112.5 -22.8 114.2 C-22.8 118.8 -22.8 123.5 -22.8 128.2 C-22.8 131.1 -22.8 134 -22.8 136.9 C-22.8 147.1 -22.8 157.2 -22.8 167.4 C-22.8 176.9 -22.7 186.3 -22.7 195.8 C-22.7 204 -22.7 212.1 -22.7 220.2 C-22.7 225.1 -22.7 229.9 -22.6 234.8 C-22.6 239.4 -22.6 243.9 -22.6 248.5 C-22.6 250.2 -22.6 251.8 -22.6 253.5 C-22.5 271.2 -22.5 271.2 -29.9 278.8 C-35.8 282.8 -40.7 284.7 -48 283.5 C-54.6 281.8 -58.6 278 -62.2 272.2 C-63.5 269.1 -63.4 266.4 -63.4 263 C-63.4 262.3 -63.4 261.6 -63.4 260.9 C-63.4 258.5 -63.4 256.2 -63.4 253.9 C-63.4 252.2 -63.4 250.5 -63.4 248.8 C-63.4 245.2 -63.4 241.6 -63.4 237.9 C-63.4 232.2 -63.5 226.5 -63.5 220.7 C-63.5 206.5 -63.6 192.3 -63.6 178 C-63.6 167 -63.6 155.9 -63.7 144.8 C-63.7 139.1 -63.7 133.4 -63.7 127.8 C-63.7 124.2 -63.7 120.7 -63.7 117.1 C-63.7 115.5 -63.7 113.8 -63.7 112.2 C-63.7 102.9 -63.7 95.2 -68.9 87.2 C-73.5 82.6 -78.3 81.4 -84.5 80.9 C-91 81.1 -97.3 83.7 -102.1 88 C-106.9 94.7 -109.2 100.2 -109.7 108.5 C-109.7 109.2 -109.8 110 -109.8 110.7 C-110.3 119.5 -110.3 128.3 -110.3 137.1 C-110.3 139 -110.3 140.8 -110.3 142.7 C-110.3 147.7 -110.3 152.7 -110.3 157.6 C-110.3 160.8 -110.3 163.9 -110.3 167 C-110.3 177.9 -110.3 188.8 -110.3 199.7 C-110.3 209.8 -110.3 220 -110.3 230.1 C-110.4 238.8 -110.4 247.6 -110.4 256.3 C-110.4 261.5 -110.4 266.7 -110.4 271.9 C-110.4 276.8 -110.4 281.7 -110.4 286.6 C-110.4 288.4 -110.4 290.2 -110.4 291.9 C-110.4 310.6 -109.2 327.4 -96.1 342 C-95.6 342.6 -95 343.2 -94.4 343.9 C-85.8 353 -74.2 358.4 -61.6 359.2 C-44.8 359.5 -30.6 355 -17.9 343.5 C-7.2 332.3 -2.8 318.1 -2.9 303 C-2.9 302.5 -2.9 302.5 -2.9 300 C-2.8 296.8 -2.8 293.6 -2.8 290.4 C-2.8 288 -2.8 285.7 -2.8 283.4 C-2.8 277.1 -2.8 270.8 -2.8 264.5 C-2.8 260.6 -2.8 256.7 -2.8 252.7 C-2.8 239.7 -2.8 226.6 -2.8 213.6 C-2.8 213.3 -2.8 213.3 -2.8 211.5 C-2.8 211.1 -2.8 211.1 -2.8 209.4 C-2.8 198 -2.7 186.6 -2.7 175.2 C-2.7 163.5 -2.7 151.8 -2.7 140.1 C-2.7 133.6 -2.7 127 -2.6 120.5 C-2.6 114.3 -2.6 108.1 -2.6 101.9 C-2.6 99.7 -2.6 97.4 -2.6 95.2 C-2.5 79.5 -3.3 64.6 -10.9 50.5 C-11.3 49.8 -11.6 49.1 -12 48.5 C-19.5 34.6 -32.3 25.9 -47.1 21 C-65.7 16.7 -83.3 20.5 -99.3 30.3 C-104.2 33.2 -108.5 33.6 -114.1 33 C-118.3 31.6 -121.2 29.4 -123.6 25.8 C-126 20.9 -126.1 16.1 -124.5 10.9 C-118.8 -2.1 -104.3 -10.3 -91.6 -15.4 C-60 -27.4 -26.1 -21.2 0 0 Z " fill="#f56835" transform="translate(686.1,803)"/>
</svg>
